<svg width="256" height="256" viewBox="0 0 256 256" fill="none" xmlns="http://www.w3.org/2000/svg">
  <defs>
    <linearGradient id="yt-field" x1="36" y1="30" x2="220" y2="226" gradientUnits="userSpaceOnUse">
      <stop offset="0" stop-color="#111827"/>
      <stop offset="0.54" stop-color="#1D4ED8"/>
      <stop offset="1" stop-color="#0F766E"/>
    </linearGradient>
    <linearGradient id="yt-edge" x1="64" y1="42" x2="198" y2="214" gradientUnits="userSpaceOnUse">
      <stop offset="0" stop-color="#6EA8FF"/>
      <stop offset="1" stop-color="#2DD4BF"/>
    </linearGradient>
    <linearGradient id="yt-ribbon" x1="74" y1="66" x2="181" y2="190" gradientUnits="userSpaceOnUse">
      <stop offset="0" stop-color="#FFFFFF"/>
      <stop offset="0.45" stop-color="#EAF2FF"/>
      <stop offset="1" stop-color="#CCFBF1"/>
    </linearGradient>
    <filter id="yt-shadow" x="18" y="18" width="220" height="226" filterUnits="userSpaceOnUse" color-interpolation-filters="sRGB">
      <feDropShadow dx="0" dy="18" stdDeviation="18" flood-color="#1D4ED8" flood-opacity="0.22"/>
    </filter>
  </defs>
  <g filter="url(#yt-shadow)">
    <path d="M128 24L212 72V168L128 216L44 168V72L128 24Z" fill="url(#yt-field)"/>
    <path d="M128 34L203 77V163L128 206L53 163V77L128 34Z" stroke="url(#yt-edge)" stroke-width="4" stroke-linejoin="round" stroke-opacity="0.72"/>
  </g>
  <path d="M77 73H104L128 113L152 73H179L141 135V179H115V135L77 73Z" fill="url(#yt-ribbon)"/>
  <path d="M94 95L128 151L162 95" stroke="#FFFFFF" stroke-width="7" stroke-linecap="round" stroke-linejoin="round" stroke-opacity="0.25"/>
  <path d="M67 122H103" stroke="#93C5FD" stroke-width="4" stroke-linecap="round" stroke-opacity="0.72"/>
  <path d="M153 122H189" stroke="#5EEAD4" stroke-width="4" stroke-linecap="round" stroke-opacity="0.72"/>
  <circle cx="67" cy="122" r="7" fill="#93C5FD"/>
  <circle cx="189" cy="122" r="7" fill="#5EEAD4"/>
  <circle cx="128" cy="56" r="7" fill="#BFDBFE"/>
  <path d="M128 56V93" stroke="#BFDBFE" stroke-width="4" stroke-linecap="round" stroke-opacity="0.6"/>
</svg>
